<?xml version="1.0" encoding="utf-8"?>
<!-- Generator: Adobe Illustrator 24.1.2, SVG Export Plug-In . SVG Version: 6.00 Build 0)  -->
<svg version="1.1" id="Capa_1" xmlns="http://www.w3.org/2000/svg" xmlns:xlink="http://www.w3.org/1999/xlink" x="0px" y="0px"
	 viewBox="0 0 331 76" style="enable-background:new 0 0 331 76;" xml:space="preserve">
<style type="text/css">
	.st0{fill:url(#SVGID_1_);}
	.st1{fill:#01A6FF;}
	.st2{fill:#FF28DC;}
</style>
<g>
	<linearGradient id="SVGID_1_" gradientUnits="userSpaceOnUse" x1="90.5836" y1="38.0091" x2="331.0194" y2="38.0091">
		<stop  offset="0" style="stop-color:#FF28DC"/>
		<stop  offset="8.400869e-02" style="stop-color:#E644DE"/>
		<stop  offset="0.2216" style="stop-color:#C36CE2"/>
		<stop  offset="0.3638" style="stop-color:#A68CE4"/>
		<stop  offset="0.5096" style="stop-color:#90A6E6"/>
		<stop  offset="0.6604" style="stop-color:#80B8E8"/>
		<stop  offset="0.8193" style="stop-color:#76C3E9"/>
		<stop  offset="1" style="stop-color:#73C6E9"/>
	</linearGradient>
	<path class="st0" d="M235.8,52.5h-11.5l0,0h-5.1l0,0l0,0v-5.1l0,0V23.5h5.1v23.9h11.5V52.5z M128.7,48.9l-9.6-25.3h5.5l8.7,22.9
		c0.3,0.7,0.7,1,1.4,1c0.7,0,1.1-0.3,1.4-1l9-22.9h5.5l-9.9,25.3c-0.5,1.4-1.2,2.4-2.2,2.8c-1,0.5-2.2,0.8-3.7,0.8
		c-1.5,0-2.7-0.3-3.7-0.8C129.9,51.2,129.1,50.2,128.7,48.9z M163.6,48.9L154,23.5h5.5l8.7,22.9c0.3,0.7,0.7,1,1.4,1
		c0.7,0,1.1-0.3,1.4-1l9-22.9h5.5l-9.9,25.3c-0.5,1.4-1.2,2.4-2.2,2.8c-1,0.5-2.2,0.8-3.7,0.8s-2.7-0.3-3.7-0.8
		C164.9,51.2,164.1,50.2,163.6,48.9z M114.8,23.5h-14.5c-1.7,0-3.2,0.2-4.4,0.6c-1.2,0.4-2.2,0.9-3,1.6c-0.7,0.7-1.2,1.4-1.6,2.2
		c0,0.1,0,0.1,0,0.1c-0.7,1.2-0.7,2.8-0.7,2.8v13.9c0,1.1,0.2,2.1,0.5,3.1c0.3,1,0.9,1.8,1.7,2.5s1.8,1.2,3,1.6
		c1.2,0.4,2.7,0.6,4.4,0.6h14.7v-5.1h-14.7c-1.5,0-2.6-0.3-3.3-0.9c-0.5-0.5-0.9-1.1-1-1.9V43l0.1-10.8c0-1.1,0.3-2,1.1-2.6
		c0.7-0.7,1.8-1,3.3-1h14.5V23.5z M102.6,35.3c-1.4,0-2.5,1.1-2.5,2.5s1.1,2.5,2.5,2.5h6.5c1.4,0,2.5-1.1,2.5-2.5s-1.1-2.5-2.5-2.5
		H102.6z M325.7,43.7c0,1.1-0.3,2-1.1,2.6c-0.7,0.7-1.8,1-3.3,1h-14.5v5.1h14.5c1.7,0,3.2-0.2,4.4-0.6c1.2-0.4,2.2-0.9,3-1.6
		c0.7-0.7,1.2-1.4,1.6-2.2c0-0.1,0-0.1,0-0.1c0.7-1.2,0.7-2.8,0.7-2.8V31.3c0-1.1-0.2-2.1-0.5-3.1c-0.3-1-0.9-1.8-1.7-2.5
		s-1.8-1.2-3-1.6c-1.2-0.4-2.7-0.6-4.4-0.6h-14.7v5.1h14.7c1.5,0,2.6,0.3,3.3,0.9c0.5,0.5,0.9,1.1,1,1.9V33V43.7z M262.6,27.3
		l9.6,25.3h-5.5l-8.6-22.9c-0.3-0.7-0.7-1-1.4-1c-0.7,0-1.1,0.3-1.4,1l-9.1,22.9h-5.5l9.9-25.3c0.5-1.4,1.2-2.4,2.2-2.8
		c1-0.5,2.2-0.8,3.7-0.8c1.5,0,2.7,0.3,3.7,0.8C261.3,25,262,25.9,262.6,27.3z M300.9,23.5h-4.7v2.3l0,0v0.8v17.9l-12.6-18.7
		c-1.2-1.8-2.6-2.6-4.1-2.2c-1.5,0.4-2.4,2-2.4,4.1v2.1l0,0v22.7h4.7V31.6l12.6,18.6c0.9,1.5,2.1,2.4,3.4,2.4c0.3,0,0.5,0,0.8-0.1
		c1.5-0.4,2.4-2,2.4-4.1v-2.1l0,0L300.9,23.5L300.9,23.5z M198.1,47.5c-1.5,0-2.6-0.3-3.3-0.9c-0.5-0.5-0.9-1.1-1-1.9V43V32.3
		c0-1.1,0.3-2,1.1-2.6c0.7-0.7,1.8-1,3.3-1h14.5v-5.1h-14.5c-1.7,0-3.2,0.2-4.4,0.6c-1.2,0.4-2.2,0.9-3,1.6
		c-0.7,0.7-1.2,1.4-1.6,2.2c0,0.1,0,0.1,0,0.1c-0.7,1.2-0.7,2.8-0.7,2.8v13.9c0,1.1,0.2,2.1,0.5,3.1c0.3,1,0.9,1.8,1.7,2.5
		c0.7,0.7,1.8,1.2,3,1.6c1.2,0.4,2.7,0.6,4.4,0.6h14.7v-5.1L198.1,47.5L198.1,47.5z M200.5,35.3c-1.4,0-2.5,1.1-2.5,2.5
		s1.1,2.5,2.5,2.5h6.5c1.4,0,2.5-1.1,2.5-2.5s-1.1-2.5-2.5-2.5H200.5z"/>
	<g>
		<g>
			<circle class="st1" cx="33.2" cy="2.9" r="2.9"/>
			<circle class="st1" cx="33.2" cy="73.1" r="2.9"/>
			<circle class="st1" cx="2.9" cy="20.5" r="2.9"/>
			<circle class="st1" cx="2.9" cy="55.5" r="2.9"/>
			<circle class="st1" cx="63.6" cy="55.5" r="2.9"/>
			<circle class="st1" cx="33.3" cy="37.9" r="2.9"/>
			<circle class="st1" cx="63.6" cy="20.4" r="2.9"/>
		</g>
		<g>
			<path class="st2" d="M36.3,70.5c0.3,0.3,0.5,0.7,0.6,1.1L60.4,58c-0.2-0.3-0.4-0.7-0.6-1L36.3,70.5z"/>
			<path class="st2" d="M59.9,19c0.1-0.4,0.3-0.7,0.6-1L36.9,4.4c-0.1,0.4-0.3,0.7-0.6,1L59.9,19z"/>
			<path class="st2" d="M6,18c0.2,0.3,0.4,0.6,0.6,1L30.1,5.4c-0.2-0.3-0.4-0.6-0.6-1L6,18z"/>
			<path class="st2" d="M63.6,24.4c-0.2,0-0.4,0-0.6-0.1v27.2c0.2,0,0.4-0.1,0.6-0.1c0.2,0,0.4,0,0.6,0.1V24.4
				C64,24.4,63.8,24.4,63.6,24.4z"/>
			<path class="st2" d="M2.3,24.4v27.2c0.2,0,0.4-0.1,0.6-0.1c0.2,0,0.4,0,0.5,0V24.4c-0.2,0-0.4,0-0.5,0
				C2.7,24.5,2.5,24.4,2.3,24.4z"/>
			<path class="st2" d="M6.1,58l23.5,13.6c0.2-0.4,0.4-0.7,0.6-1.1L6.6,57C6.5,57.3,6.3,57.7,6.1,58z"/>
			<path class="st2" d="M30.1,40.4c-0.3-0.3-0.5-0.7-0.6-1.1L6,53c0.3,0.3,0.5,0.6,0.6,1L30.1,40.4z"/>
			<path class="st2" d="M36.4,40.4L59.9,54c0.2-0.4,0.4-0.7,0.6-1L37,39.4C36.8,39.8,36.6,40.1,36.4,40.4z"/>
			<path class="st2" d="M32.7,6.9V34c0.2,0,0.4,0,0.6,0c0.2,0,0.4,0,0.6,0V6.8c-0.2,0-0.4,0-0.6,0C33,6.9,32.9,6.9,32.7,6.9z"/>
		</g>
	</g>
</g>
</svg>
